<svg version="1.1" viewBox="0.0 0.0 600.0 371.0" fill="none" stroke="none" stroke-linecap="square" stroke-miterlimit="10" width="600" height="371" xmlns:xlink="http://www.w3.org/1999/xlink" xmlns="http://www.w3.org/2000/svg"><path fill="#ffffff" d="M0 0L600.0 0L600.0 371.0L0 371.0L0 0Z" fill-rule="nonzero"/><path stroke="#333333" stroke-width="1.0" stroke-linecap="butt" d="M78.5 331.5L581.5 331.5" fill-rule="nonzero"/><path stroke="#cccccc" stroke-width="1.0" stroke-linecap="butt" d="M78.5 249.5L581.5 249.5" fill-rule="nonzero"/><path stroke="#cccccc" stroke-width="1.0" stroke-linecap="butt" d="M78.5 168.5L581.5 168.5" fill-rule="nonzero"/><path stroke="#cccccc" stroke-width="1.0" stroke-linecap="butt" d="M78.5 86.5L581.5 86.5" fill-rule="nonzero"/><clipPath id="id_0"><path d="M78.55 86.916664L581.45 86.916664L581.45 331.45L78.55 331.45L78.55 86.916664Z" clip-rule="nonzero"/></clipPath><path stroke="#000000" stroke-width="0.0" stroke-linecap="butt" stroke-opacity="0.0" clip-path="url(#id_0)" d="M195.0 331.0L120.0 331.0L120.0 127.0C120.0 125.89543 120.89543 125.0 122.0 125.0L193.0 125.0C194.10457 125.0 195.0 125.89543 195.0 127.0Z" fill-rule="nonzero"/><path fill="#38761d" clip-path="url(#id_0)" d="M195.0 331.0L120.0 331.0L120.0 127.0C120.0 125.89543 120.89543 125.0 122.0 125.0L193.0 125.0C194.10457 125.0 195.0 125.89543 195.0 127.0Z" fill-rule="nonzero"/><path stroke="#000000" stroke-width="0.0" stroke-linecap="butt" stroke-opacity="0.0" clip-path="url(#id_0)" d="M310.0 331.0L235.0 331.0L235.0 128.0C235.0 126.89543 235.89543 126.0 237.0 126.0L308.0 126.0C309.10458 126.0 310.0 126.89543 310.0 128.0Z" fill-rule="nonzero"/><path fill="#38761d" clip-path="url(#id_0)" d="M310.0 331.0L235.0 331.0L235.0 128.0C235.0 126.89543 235.89543 126.0 237.0 126.0L308.0 126.0C309.10458 126.0 310.0 126.89543 310.0 128.0Z" fill-rule="nonzero"/><path stroke="#000000" stroke-width="0.0" stroke-linecap="butt" stroke-opacity="0.0" clip-path="url(#id_0)" d="M426.0 331.0L351.0 331.0L351.0 108.0C351.0 106.89543 351.89542 106.0 353.0 106.0L424.0 106.0C425.10458 106.0 426.0 106.89543 426.0 108.0Z" fill-rule="nonzero"/><path fill="#ff0000" clip-path="url(#id_0)" d="M426.0 331.0L351.0 331.0L351.0 108.0C351.0 106.89543 351.89542 106.0 353.0 106.0L424.0 106.0C425.10458 106.0 426.0 106.89543 426.0 108.0Z" fill-rule="nonzero"/><path stroke="#000000" stroke-width="0.0" stroke-linecap="butt" stroke-opacity="0.0" clip-path="url(#id_0)" d="M541.0 331.0L466.0 331.0L466.0 128.0C466.0 126.89543 466.89542 126.0 468.0 126.0L539.0 126.0C540.10455 126.0 541.0 126.89543 541.0 128.0Z" fill-rule="nonzero"/><path fill="#38761d" clip-path="url(#id_0)" d="M541.0 331.0L466.0 331.0L466.0 128.0C466.0 126.89543 466.89542 126.0 468.0 126.0L539.0 126.0C540.10455 126.0 541.0 126.89543 541.0 128.0Z" fill-rule="nonzero"/><path fill="#424242" d="M22.940638 221.54271L22.940638 224.29271L30.550013 224.29271L30.550013 225.40208L22.940638 225.40208L22.940638 228.15208L22.018763 228.15208L22.018763 221.54271L22.940638 221.54271ZM28.315638 215.73021L28.315638 219.30833L30.550013 220.10521L30.550013 221.26146L22.018763 218.01146L22.018763 217.02708L30.550013 213.76146L30.550013 214.91771L28.315638 215.73021ZM27.393763 218.96458L27.393763 216.05833L23.409388 217.51146L27.393763 218.96458ZM22.018763 210.99583L28.971888 208.19896L22.018763 205.41771L22.018763 203.94896L30.550013 203.94896L30.550013 205.07396L27.221888 205.07396L23.643763 204.96458L30.550013 207.77708L30.550013 208.63646L23.659388 211.43333L27.221888 211.32396L30.550013 211.32396L30.550013 212.44896L22.018763 212.44896L22.018763 210.99583Z" fill-rule="nonzero"/><path fill="#757575" d="M71.6125 332.3094Q71.6125 334.21564 70.95625 335.15314Q70.31563 336.075 68.925 336.075Q67.56563 336.075 66.90938 335.16876Q66.25313 334.2625 66.22188 332.45L66.22188 331.0125Q66.22188 329.1219 66.8625 328.21564Q67.51875 327.29376 68.90938 327.29376Q70.28438 327.29376 70.94063 328.1844Q71.59688 329.0594 71.6125 330.90314L71.6125 332.3094ZM70.51875 330.825Q70.51875 329.45 70.12813 328.825Q69.75313 328.1844 68.90938 328.1844Q68.08125 328.1844 67.69063 328.825Q67.31563 329.45 67.31563 330.7469L67.31563 332.48126Q67.31563 333.85626 67.70625 334.52814Q68.1125 335.1844 68.925 335.1844Q69.72188 335.1844 70.1125 334.5594Q70.50313 333.9344 70.51875 332.60626L70.51875 330.825Z" fill-rule="nonzero"/><path fill="#757575" d="M59.753124 250.15764L60.190624 245.90764L64.56563 245.90764L64.56563 246.90764L61.1125 246.90764L60.846874 249.23576Q61.4875 248.86076 62.284374 248.86076Q63.440624 248.86076 64.12813 249.64201Q64.81563 250.40764 64.81563 251.72014Q64.81563 253.03264 64.09688 253.79826Q63.39375 254.56389 62.1125 254.56389Q60.9875 254.56389 60.26875 253.93889Q59.55 253.29826 59.45625 252.18889L60.471874 252.18889Q60.58125 252.92326 61.003124 253.29826Q61.425 253.67326 62.1125 253.67326Q62.8625 253.67326 63.3 253.15764Q63.7375 252.64201 63.7375 251.73576Q63.7375 250.87639 63.26875 250.36076Q62.8 249.84514 62.01875 249.84514Q61.315624 249.84514 60.909374 250.14201L60.628124 250.37639L59.753124 250.15764ZM71.6125 250.79826Q71.6125 252.70451 70.95625 253.64201Q70.31563 254.56389 68.925 254.56389Q67.56563 254.56389 66.90938 253.65764Q66.25313 252.75139 66.22188 250.93889L66.22188 249.50139Q66.22188 247.61076 66.8625 246.70451Q67.51875 245.78264 68.90938 245.78264Q70.28438 245.78264 70.94063 246.67326Q71.59688 247.54826 71.6125 249.39201L71.6125 250.79826ZM70.51875 249.31389Q70.51875 247.93889 70.12813 247.31389Q69.75313 246.67326 68.90938 246.67326Q68.08125 246.67326 67.69063 247.31389Q67.31563 247.93889 67.31563 249.23576L67.31563 250.97014Q67.31563 252.34514 67.70625 253.01701Q68.1125 253.67326 68.925 253.67326Q69.72188 253.67326 70.1125 253.04826Q70.50313 252.42326 70.51875 251.09514L70.51875 249.31389Z" fill-rule="nonzero"/><path fill="#757575" d="M55.815624 172.92778L54.7375 172.92778L54.7375 165.70903L52.55 166.5059L52.55 165.52153L55.659374 164.34966L55.815624 164.34966L55.815624 172.92778ZM64.6125 169.28716Q64.6125 171.1934 63.95625 172.1309Q63.315624 173.05278 61.925 173.05278Q60.565624 173.05278 59.909374 172.14653Q59.253124 171.24028 59.221874 169.42778L59.221874 167.99028Q59.221874 166.09966 59.8625 165.1934Q60.51875 164.27153 61.909374 164.27153Q63.284374 164.27153 63.940624 165.16216Q64.59688 166.03716 64.6125 167.8809L64.6125 169.28716ZM63.51875 167.80278Q63.51875 166.42778 63.128124 165.80278Q62.753124 165.16216 61.909374 165.16216Q61.08125 165.16216 60.690624 165.80278Q60.315624 166.42778 60.315624 167.72466L60.315624 169.45903Q60.315624 170.83403 60.70625 171.5059Q61.1125 172.16216 61.925 172.16216Q62.721874 172.16216 63.1125 171.53716Q63.503124 170.91216 63.51875 169.58403L63.51875 167.80278ZM71.6125 169.28716Q71.6125 171.1934 70.95625 172.1309Q70.31563 173.05278 68.925 173.05278Q67.56563 173.05278 66.90938 172.14653Q66.25313 171.24028 66.22188 169.42778L66.22188 167.99028Q66.22188 166.09966 66.8625 165.1934Q67.51875 164.27153 68.90938 164.27153Q70.28438 164.27153 70.94063 165.16216Q71.59688 166.03716 71.6125 167.8809L71.6125 169.28716ZM70.51875 167.80278Q70.51875 166.42778 70.12813 165.80278Q69.75313 165.16216 68.90938 165.16216Q68.08125 165.16216 67.69063 165.80278Q67.31563 166.42778 67.31563 167.72466L67.31563 169.45903Q67.31563 170.83403 67.70625 171.5059Q68.1125 172.16216 68.925 172.16216Q69.72188 172.16216 70.1125 171.53716Q70.50313 170.91216 70.51875 169.58403L70.51875 167.80278Z" fill-rule="nonzero"/><path fill="#757575" d="M55.815624 91.416664L54.7375 91.416664L54.7375 84.197914L52.55 84.99479L52.55 84.010414L55.659374 82.83854L55.815624 82.83854L55.815624 91.416664ZM59.753124 87.135414L60.190624 82.885414L64.56563 82.885414L64.56563 83.885414L61.1125 83.885414L60.846874 86.21354Q61.4875 85.83854 62.284374 85.83854Q63.440624 85.83854 64.12813 86.61979Q64.81563 87.385414 64.81563 88.697914Q64.81563 90.010414 64.09688 90.77604Q63.39375 91.541664 62.1125 91.541664Q60.9875 91.541664 60.26875 90.916664Q59.55 90.27604 59.45625 89.166664L60.471874 89.166664Q60.58125 89.90104 61.003124 90.27604Q61.425 90.65104 62.1125 90.65104Q62.8625 90.65104 63.3 90.135414Q63.7375 89.61979 63.7375 88.71354Q63.7375 87.854164 63.26875 87.33854Q62.8 86.822914 62.01875 86.822914Q61.315624 86.822914 60.909374 87.11979L60.628124 87.354164L59.753124 87.135414ZM71.6125 87.77604Q71.6125 89.68229 70.95625 90.61979Q70.31563 91.541664 68.925 91.541664Q67.56563 91.541664 66.90938 90.635414Q66.25313 89.729164 66.22188 87.916664L66.22188 86.479164Q66.22188 84.58854 66.8625 83.68229Q67.51875 82.760414 68.90938 82.760414Q70.28438 82.760414 70.94063 83.65104Q71.59688 84.52604 71.6125 86.36979L71.6125 87.77604ZM70.51875 86.291664Q70.51875 84.916664 70.12813 84.291664Q69.75313 83.65104 68.90938 83.65104Q68.08125 83.65104 67.69063 84.291664Q67.31563 84.916664 67.31563 86.21354L67.31563 87.947914Q67.31563 89.322914 67.70625 89.99479Q68.1125 90.65104 68.925 90.65104Q69.72188 90.65104 70.1125 90.02604Q70.50313 89.40104 70.51875 88.072914L70.51875 86.291664Z" fill-rule="nonzero"/><path fill="#757575" d="M138.97684 341.84064L136.22684 341.84064L136.22684 349.45L135.11746 349.45L135.11746 341.84064L132.36746 341.84064L132.36746 340.91876L138.97684 340.91876L138.97684 341.84064ZM143.82059 349.45Q143.72684 349.2625 143.66434 348.77814Q142.91434 349.575 141.86746 349.575Q140.92996 349.575 140.32059 349.04376Q139.72684 348.5125 139.72684 347.6844Q139.72684 346.7 140.47684 346.15314Q141.22684 345.60626 142.60184 345.60626L143.64871 345.60626L143.64871 345.10626Q143.64871 344.54376 143.30496 344.21564Q142.97684 343.8719 142.30496 343.8719Q141.72684 343.8719 141.33621 344.16876Q140.94559 344.45 140.94559 344.8719L139.85184 344.8719Q139.85184 344.3875 140.17996 343.95Q140.52371 343.5125 141.10184 343.2625Q141.67996 342.9969 142.36746 342.9969Q143.47684 342.9969 144.08621 343.54376Q144.71121 344.09064 144.74246 345.04376L144.74246 347.96564Q144.74246 348.84064 144.96121 349.35626L144.96121 349.45L143.82059 349.45ZM142.02371 348.6219Q142.53934 348.6219 142.99246 348.35626Q143.44559 348.09064 143.64871 347.66876L143.64871 346.3719L142.80496 346.3719Q140.80496 346.3719 140.80496 347.54376Q140.80496 348.04376 141.14871 348.34064Q141.49246 348.6219 142.02371 348.6219ZM148.08621 349.45L147.00809 349.45L147.00809 343.10626L148.08621 343.10626L148.08621 349.45ZM146.91434 341.4344Q146.91434 341.16876 147.07059 340.98126Q147.24246 340.79376 147.55496 340.79376Q147.86746 340.79376 148.02371 340.98126Q148.19559 341.16876 148.19559 341.4344Q148.19559 341.6844 148.02371 341.8719Q147.86746 342.04376 147.55496 342.04376Q147.24246 342.04376 147.07059 341.8719Q146.91434 341.6844 146.91434 341.4344ZM151.08621 349.45L150.00809 349.45L150.00809 340.45L151.08621 340.45L151.08621 349.45ZM154.08621 349.45L153.00809 349.45L153.00809 340.45L154.08621 340.45L154.08621 349.45ZM158.53934 349.575Q157.24246 349.575 156.42996 348.73126Q155.63309 347.8719 155.63309 346.45L155.63309 346.2625Q155.63309 345.3094 155.99246 344.575Q156.35184 343.825 156.99246 343.41876Q157.64871 342.9969 158.39871 342.9969Q159.63309 342.9969 160.32059 343.8094Q161.00809 344.6219 161.00809 346.1375L161.00809 346.59064L156.71121 346.59064Q156.74246 347.52814 157.25809 348.10626Q157.78934 348.6844 158.60184 348.6844Q159.16434 348.6844 159.55496 348.45Q159.96121 348.21564 160.27371 347.825L160.92996 348.34064Q160.13309 349.575 158.53934 349.575ZM158.39871 343.8875Q157.74246 343.8875 157.28934 344.3719Q156.85184 344.84064 156.75809 345.7L159.92996 345.7L159.92996 345.6219Q159.88309 344.79376 159.47684 344.34064Q159.08621 343.8875 158.39871 343.8875ZM161.92996 348.8875Q161.92996 348.60626 162.08621 348.41876Q162.25809 348.23126 162.58621 348.23126Q162.92996 348.23126 163.10184 348.41876Q163.27371 348.60626 163.27371 348.8875Q163.27371 349.15314 163.10184 349.34064Q162.92996 349.5125 162.58621 349.5125Q162.25809 349.5125 162.08621 349.34064Q161.92996 349.15314 161.92996 348.8875ZM161.92996 343.8875Q161.92996 343.60626 162.08621 343.41876Q162.25809 343.23126 162.58621 343.23126Q162.92996 343.23126 163.10184 343.41876Q163.27371 343.60626 163.27371 343.8875Q163.27371 344.15314 163.10184 344.34064Q162.92996 344.5125 162.58621 344.5125Q162.25809 344.5125 162.08621 344.34064Q161.92996 344.15314 161.92996 343.8875ZM171.35184 349.45L170.27371 349.45L170.27371 342.23126L168.08621 343.02814L168.08621 342.04376L171.19559 340.8719L171.35184 340.8719L171.35184 349.45ZM180.30496 341.52814L176.77371 349.45L175.63309 349.45L179.14871 341.8094L174.53934 341.8094L174.53934 340.91876L180.30496 340.91876L180.30496 341.52814Z" fill-rule="nonzero"/><path fill="#757575" d="M258.08603 341.84064L255.33603 341.84064L255.33603 349.45L254.22665 349.45L254.22665 341.84064L251.47665 341.84064L251.47665 340.91876L258.08603 340.91876L258.08603 341.84064ZM262.92978 349.45Q262.83603 349.2625 262.77353 348.77814Q262.02353 349.575 260.97665 349.575Q260.03915 349.575 259.42978 349.04376Q258.83603 348.5125 258.83603 347.6844Q258.83603 346.7 259.58603 346.15314Q260.33603 345.60626 261.71103 345.60626L262.7579 345.60626L262.7579 345.10626Q262.7579 344.54376 262.41415 344.21564Q262.08603 343.8719 261.41415 343.8719Q260.83603 343.8719 260.4454 344.16876Q260.05478 344.45 260.05478 344.8719L258.96103 344.8719Q258.96103 344.3875 259.28915 343.95Q259.6329 343.5125 260.21103 343.2625Q260.78915 342.9969 261.47665 342.9969Q262.58603 342.9969 263.1954 343.54376Q263.8204 344.09064 263.85165 345.04376L263.85165 347.96564Q263.85165 348.84064 264.0704 349.35626L264.0704 349.45L262.92978 349.45ZM261.1329 348.6219Q261.64853 348.6219 262.10165 348.35626Q262.55478 348.09064 262.7579 347.66876L262.7579 346.3719L261.91415 346.3719Q259.91415 346.3719 259.91415 347.54376Q259.91415 348.04376 260.2579 348.34064Q260.60165 348.6219 261.1329 348.6219ZM267.1954 349.45L266.11728 349.45L266.11728 343.10626L267.1954 343.10626L267.1954 349.45ZM266.02353 341.4344Q266.02353 341.16876 266.17978 340.98126Q266.35165 340.79376 266.66415 340.79376Q266.97665 340.79376 267.1329 340.98126Q267.30478 341.16876 267.30478 341.4344Q267.30478 341.6844 267.1329 341.8719Q266.97665 342.04376 266.66415 342.04376Q266.35165 342.04376 266.17978 341.8719Q266.02353 341.6844 266.02353 341.4344ZM270.1954 349.45L269.11728 349.45L269.11728 340.45L270.1954 340.45L270.1954 349.45ZM273.1954 349.45L272.11728 349.45L272.11728 340.45L273.1954 340.45L273.1954 349.45ZM277.64853 349.575Q276.35165 349.575 275.53915 348.73126Q274.74228 347.8719 274.74228 346.45L274.74228 346.2625Q274.74228 345.3094 275.10165 344.575Q275.46103 343.825 276.10165 343.41876Q276.7579 342.9969 277.5079 342.9969Q278.74228 342.9969 279.42978 343.8094Q280.11728 344.6219 280.11728 346.1375L280.11728 346.59064L275.8204 346.59064Q275.85165 347.52814 276.36728 348.10626Q276.89853 348.6844 277.71103 348.6844Q278.27353 348.6844 278.66415 348.45Q279.0704 348.21564 279.3829 347.825L280.03915 348.34064Q279.24228 349.575 277.64853 349.575ZM277.5079 343.8875Q276.85165 343.8875 276.39853 344.3719Q275.96103 344.84064 275.86728 345.7L279.03915 345.7L279.03915 345.6219Q278.99228 344.79376 278.58603 344.34064Q278.1954 343.8875 277.5079 343.8875ZM281.03915 348.8875Q281.03915 348.60626 281.1954 348.41876Q281.36728 348.23126 281.6954 348.23126Q282.03915 348.23126 282.21103 348.41876Q282.3829 348.60626 282.3829 348.8875Q282.3829 349.15314 282.21103 349.34064Q282.03915 349.5125 281.6954 349.5125Q281.36728 349.5125 281.1954 349.34064Q281.03915 349.15314 281.03915 348.8875ZM281.03915 343.8875Q281.03915 343.60626 281.1954 343.41876Q281.36728 343.23126 281.6954 343.23126Q282.03915 343.23126 282.21103 343.41876Q282.3829 343.60626 282.3829 343.8875Q282.3829 344.15314 282.21103 344.34064Q282.03915 344.5125 281.6954 344.5125Q281.36728 344.5125 281.1954 344.34064Q281.03915 344.15314 281.03915 343.8875ZM291.05478 345.7Q290.72665 346.10626 290.24228 346.35626Q289.77353 346.59064 289.21103 346.59064Q288.47665 346.59064 287.92978 346.23126Q287.3829 345.8719 287.08603 345.21564Q286.78915 344.54376 286.78915 343.7469Q286.78915 342.90314 287.10165 342.21564Q287.42978 341.52814 288.02353 341.16876Q288.6329 340.79376 289.42978 340.79376Q290.6954 340.79376 291.41415 341.7469Q292.14853 342.7 292.14853 344.325L292.14853 344.6375Q292.14853 347.1375 291.16415 348.27814Q290.17978 349.41876 288.1954 349.45L287.97665 349.45L287.97665 348.54376L288.21103 348.54376Q289.55478 348.5125 290.27353 347.84064Q290.99228 347.16876 291.05478 345.7ZM289.3829 345.7Q289.92978 345.7 290.3829 345.3719Q290.85165 345.02814 291.0704 344.54376L291.0704 344.10626Q291.0704 343.04376 290.60165 342.3719Q290.1329 341.7 289.42978 341.7Q288.71103 341.7 288.27353 342.2469Q287.85165 342.79376 287.85165 343.7Q287.85165 344.575 288.2579 345.1375Q288.67978 345.7 289.3829 345.7Z" fill-rule="nonzero"/><path fill="#757575" d="M346.1171 347.95L348.5546 340.91876L349.78897 340.91876L346.6171 349.45L345.63272 349.45L342.47647 340.91876L343.69522 340.91876L346.1171 347.95ZM355.03897 349.45Q354.94522 349.2625 354.88272 348.77814Q354.13272 349.575 353.08585 349.575Q352.14835 349.575 351.53897 349.04376Q350.94522 348.5125 350.94522 347.6844Q350.94522 346.7 351.69522 346.15314Q352.44522 345.60626 353.82022 345.60626L354.8671 345.60626L354.8671 345.10626Q354.8671 344.54376 354.52335 344.21564Q354.19522 343.8719 353.52335 343.8719Q352.94522 343.8719 352.5546 344.16876Q352.16397 344.45 352.16397 344.8719L351.07022 344.8719Q351.07022 344.3875 351.39835 343.95Q351.7421 343.5125 352.32022 343.2625Q352.89835 342.9969 353.58585 342.9969Q354.69522 342.9969 355.3046 343.54376Q355.9296 344.09064 355.96085 345.04376L355.96085 347.96564Q355.96085 348.84064 356.1796 349.35626L356.1796 349.45L355.03897 349.45ZM353.2421 348.6219Q353.75772 348.6219 354.21085 348.35626Q354.66397 348.09064 354.8671 347.66876L354.8671 346.3719L354.02335 346.3719Q352.02335 346.3719 352.02335 347.54376Q352.02335 348.04376 352.3671 348.34064Q352.71085 348.6219 353.2421 348.6219ZM361.19522 344.075Q360.94522 344.04376 360.66397 344.04376Q359.58585 344.04376 359.21085 344.95L359.21085 349.45L358.13272 349.45L358.13272 343.10626L359.1796 343.10626L359.19522 343.84064Q359.72647 342.9969 360.71085 342.9969Q361.02335 342.9969 361.19522 343.075L361.19522 344.075ZM363.3046 349.45L362.22647 349.45L362.22647 343.10626L363.3046 343.10626L363.3046 349.45ZM362.13272 341.4344Q362.13272 341.16876 362.28897 340.98126Q362.46085 340.79376 362.77335 340.79376Q363.08585 340.79376 363.2421 340.98126Q363.41397 341.16876 363.41397 341.4344Q363.41397 341.6844 363.2421 341.8719Q363.08585 342.04376 362.77335 342.04376Q362.46085 342.04376 362.28897 341.8719Q362.13272 341.6844 362.13272 341.4344ZM369.03897 349.45Q368.94522 349.2625 368.88272 348.77814Q368.13272 349.575 367.08585 349.575Q366.14835 349.575 365.53897 349.04376Q364.94522 348.5125 364.94522 347.6844Q364.94522 346.7 365.69522 346.15314Q366.44522 345.60626 367.82022 345.60626L368.8671 345.60626L368.8671 345.10626Q368.8671 344.54376 368.52335 344.21564Q368.19522 343.8719 367.52335 343.8719Q366.94522 343.8719 366.5546 344.16876Q366.16397 344.45 366.16397 344.8719L365.07022 344.8719Q365.07022 344.3875 365.39835 343.95Q365.7421 343.5125 366.32022 343.2625Q366.89835 342.9969 367.58585 342.9969Q368.69522 342.9969 369.3046 343.54376Q369.9296 344.09064 369.96085 345.04376L369.96085 347.96564Q369.96085 348.84064 370.1796 349.35626L370.1796 349.45L369.03897 349.45ZM367.2421 348.6219Q367.75772 348.6219 368.21085 348.35626Q368.66397 348.09064 368.8671 347.66876L368.8671 346.3719L368.02335 346.3719Q366.02335 346.3719 366.02335 347.54376Q366.02335 348.04376 366.3671 348.34064Q366.71085 348.6219 367.2421 348.6219ZM373.14835 343.10626L373.1796 343.90314Q373.91397 342.9969 375.08585 342.9969Q377.10147 342.9969 377.1171 345.2625L377.1171 349.45L376.02335 349.45L376.02335 345.2469Q376.02335 344.575 375.71085 344.2469Q375.41397 343.91876 374.75772 343.91876Q374.22647 343.91876 373.82022 344.2Q373.4296 344.48126 373.21085 344.9344L373.21085 349.45L372.13272 349.45L372.13272 343.10626L373.14835 343.10626ZM381.66397 348.6844Q382.2421 348.6844 382.6796 348.34064Q383.1171 347.98126 383.16397 347.45L384.19522 347.45Q384.16397 347.9969 383.8046 348.4969Q383.46085 348.98126 382.88272 349.27814Q382.32022 349.575 381.66397 349.575Q380.3671 349.575 379.60147 348.71564Q378.85147 347.84064 378.85147 346.34064L378.85147 346.15314Q378.85147 345.23126 379.1796 344.5125Q379.52335 343.79376 380.14835 343.40314Q380.78897 342.9969 381.66397 342.9969Q382.72647 342.9969 383.4296 343.6375Q384.14835 344.2625 384.19522 345.29376L383.16397 345.29376Q383.1171 344.66876 382.69522 344.27814Q382.27335 343.8875 381.66397 343.8875Q380.83585 343.8875 380.38272 344.48126Q379.9296 345.075 379.9296 346.2L379.9296 346.40314Q379.9296 347.4969 380.38272 348.09064Q380.83585 348.6844 381.66397 348.6844ZM387.75772 349.575Q386.46085 349.575 385.64835 348.73126Q384.85147 347.8719 384.85147 346.45L384.85147 346.2625Q384.85147 345.3094 385.21085 344.575Q385.57022 343.825 386.21085 343.41876Q386.8671 342.9969 387.6171 342.9969Q388.85147 342.9969 389.53897 343.8094Q390.22647 344.6219 390.22647 346.1375L390.22647 346.59064L385.9296 346.59064Q385.96085 347.52814 386.47647 348.10626Q387.00772 348.6844 387.82022 348.6844Q388.38272 348.6844 388.77335 348.45Q389.1796 348.21564 389.4921 347.825L390.14835 348.34064Q389.35147 349.575 387.75772 349.575ZM387.6171 343.8875Q386.96085 343.8875 386.50772 344.3719Q386.07022 344.84064 385.97647 345.7L389.14835 345.7L389.14835 345.6219Q389.10147 344.79376 388.69522 344.34064Q388.3046 343.8875 387.6171 343.8875ZM391.14835 348.8875Q391.14835 348.60626 391.3046 348.41876Q391.47647 348.23126 391.8046 348.23126Q392.14835 348.23126 392.32022 348.41876Q392.4921 348.60626 392.4921 348.8875Q392.4921 349.15314 392.32022 349.34064Q392.14835 349.5125 391.8046 349.5125Q391.47647 349.5125 391.3046 349.34064Q391.14835 349.15314 391.14835 348.8875ZM391.14835 343.8875Q391.14835 343.60626 391.3046 343.41876Q391.47647 343.23126 391.8046 343.23126Q392.14835 343.23126 392.32022 343.41876Q392.4921 343.60626 392.4921 343.8875Q392.4921 344.15314 392.32022 344.34064Q392.14835 344.5125 391.8046 344.5125Q391.47647 344.5125 391.3046 344.34064Q391.14835 344.15314 391.14835 343.8875ZM400.57022 349.45L399.4921 349.45L399.4921 342.23126L397.3046 343.02814L397.3046 342.04376L400.41397 340.8719L400.57022 340.8719L400.57022 349.45ZM405.58585 344.65314L406.39835 344.65314Q407.1796 344.6375 407.6171 344.2469Q408.0546 343.85626 408.0546 343.1844Q408.0546 341.6844 406.5546 341.6844Q405.85147 341.6844 405.4296 342.09064Q405.02335 342.4969 405.02335 343.15314L403.9296 343.15314Q403.9296 342.1375 404.66397 341.46564Q405.41397 340.79376 406.5546 340.79376Q407.75772 340.79376 408.44522 341.4344Q409.13272 342.075 409.13272 343.21564Q409.13272 343.77814 408.77335 344.29376Q408.41397 344.8094 407.78897 345.075Q408.4921 345.29376 408.8671 345.8094Q409.25772 346.325 409.25772 347.075Q409.25772 348.21564 408.50772 348.90314Q407.75772 349.575 406.5546 349.575Q405.3671 349.575 404.60147 348.91876Q403.85147 348.2625 403.85147 347.2L404.94522 347.2Q404.94522 347.8719 405.38272 348.27814Q405.82022 348.6844 406.57022 348.6844Q407.35147 348.6844 407.75772 348.27814Q408.1796 347.85626 408.1796 347.09064Q408.1796 346.35626 407.72647 345.96564Q407.27335 345.5594 406.39835 345.54376L405.58585 345.54376L405.58585 344.65314ZM414.57022 349.45L413.4921 349.45L413.4921 342.23126L411.3046 343.02814L411.3046 342.04376L414.41397 340.8719L414.57022 340.8719L414.57022 349.45ZM418.08585 351.15314L417.47647 350.73126Q418.02335 349.96564 418.0546 349.1375L418.0546 348.16876L419.1171 348.16876L419.1171 349.0125Q419.1171 349.60626 418.82022 350.2Q418.52335 350.79376 418.08585 351.15314ZM424.58585 346.59064L425.77335 346.59064L425.77335 347.46564L424.58585 347.46564L424.58585 349.45L423.50772 349.45L423.50772 347.46564L419.6171 347.46564L419.6171 346.825L423.4296 340.91876L424.58585 340.91876L424.58585 346.59064ZM420.85147 346.59064L423.50772 346.59064L423.50772 342.40314L423.3671 342.6375L420.85147 346.59064ZM431.58585 346.59064L432.77335 346.59064L432.77335 347.46564L431.58585 347.46564L431.58585 349.45L430.50772 349.45L430.50772 347.46564L426.6171 347.46564L426.6171 346.825L430.4296 340.91876L431.58585 340.91876L431.58585 346.59064ZM427.85147 346.59064L430.50772 346.59064L430.50772 342.40314L430.3671 342.6375L427.85147 346.59064Z" fill-rule="nonzero"/><path fill="#757575" d="M468.7263 347.95L471.1638 340.91876L472.39816 340.91876L469.2263 349.45L468.2419 349.45L465.08566 340.91876L466.3044 340.91876L468.7263 347.95ZM477.64816 349.45Q477.5544 349.2625 477.4919 348.77814Q476.7419 349.575 475.69504 349.575Q474.75754 349.575 474.14816 349.04376Q473.5544 348.5125 473.5544 347.6844Q473.5544 346.7 474.3044 346.15314Q475.0544 345.60626 476.4294 345.60626L477.4763 345.60626L477.4763 345.10626Q477.4763 344.54376 477.13254 344.21564Q476.8044 343.8719 476.13254 343.8719Q475.5544 343.8719 475.1638 344.16876Q474.77316 344.45 474.77316 344.8719L473.6794 344.8719Q473.6794 344.3875 474.00754 343.95Q474.3513 343.5125 474.9294 343.2625Q475.50754 342.9969 476.19504 342.9969Q477.3044 342.9969 477.9138 343.54376Q478.5388 344.09064 478.57004 345.04376L478.57004 347.96564Q478.57004 348.84064 478.7888 349.35626L478.7888 349.45L477.64816 349.45ZM475.8513 348.6219Q476.3669 348.6219 476.82004 348.35626Q477.27316 348.09064 477.4763 347.66876L477.4763 346.3719L476.63254 346.3719Q474.63254 346.3719 474.63254 347.54376Q474.63254 348.04376 474.9763 348.34064Q475.32004 348.6219 475.8513 348.6219ZM483.8044 344.075Q483.5544 344.04376 483.27316 344.04376Q482.19504 344.04376 481.82004 344.95L481.82004 349.45L480.7419 349.45L480.7419 343.10626L481.7888 343.10626L481.8044 343.84064Q482.33566 342.9969 483.32004 342.9969Q483.63254 342.9969 483.8044 343.075L483.8044 344.075ZM485.9138 349.45L484.83566 349.45L484.83566 343.10626L485.9138 343.10626L485.9138 349.45ZM484.7419 341.4344Q484.7419 341.16876 484.89816 340.98126Q485.07004 340.79376 485.38254 340.79376Q485.69504 340.79376 485.8513 340.98126Q486.02316 341.16876 486.02316 341.4344Q486.02316 341.6844 485.8513 341.8719Q485.69504 342.04376 485.38254 342.04376Q485.07004 342.04376 484.89816 341.8719Q484.7419 341.6844 484.7419 341.4344ZM491.64816 349.45Q491.5544 349.2625 491.4919 348.77814Q490.7419 349.575 489.69504 349.575Q488.75754 349.575 488.14816 349.04376Q487.5544 348.5125 487.5544 347.6844Q487.5544 346.7 488.3044 346.15314Q489.0544 345.60626 490.4294 345.60626L491.4763 345.60626L491.4763 345.10626Q491.4763 344.54376 491.13254 344.21564Q490.8044 343.8719 490.13254 343.8719Q489.5544 343.8719 489.1638 344.16876Q488.77316 344.45 488.77316 344.8719L487.6794 344.8719Q487.6794 344.3875 488.00754 343.95Q488.3513 343.5125 488.9294 343.2625Q489.50754 342.9969 490.19504 342.9969Q491.3044 342.9969 491.9138 343.54376Q492.5388 344.09064 492.57004 345.04376L492.57004 347.96564Q492.57004 348.84064 492.7888 349.35626L492.7888 349.45L491.64816 349.45ZM489.8513 348.6219Q490.3669 348.6219 490.82004 348.35626Q491.27316 348.09064 491.4763 347.66876L491.4763 346.3719L490.63254 346.3719Q488.63254 346.3719 488.63254 347.54376Q488.63254 348.04376 488.9763 348.34064Q489.32004 348.6219 489.8513 348.6219ZM495.75754 343.10626L495.7888 343.90314Q496.52316 342.9969 497.69504 342.9969Q499.71066 342.9969 499.7263 345.2625L499.7263 349.45L498.63254 349.45L498.63254 345.2469Q498.63254 344.575 498.32004 344.2469Q498.02316 343.91876 497.3669 343.91876Q496.83566 343.91876 496.4294 344.2Q496.0388 344.48126 495.82004 344.9344L495.82004 349.45L494.7419 349.45L494.7419 343.10626L495.75754 343.10626ZM504.27316 348.6844Q504.8513 348.6844 505.2888 348.34064Q505.7263 347.98126 505.77316 347.45L506.8044 347.45Q506.77316 347.9969 506.4138 348.4969Q506.07004 348.98126 505.4919 349.27814Q504.9294 349.575 504.27316 349.575Q502.9763 349.575 502.21066 348.71564Q501.46066 347.84064 501.46066 346.34064L501.46066 346.15314Q501.46066 345.23126 501.7888 344.5125Q502.13254 343.79376 502.75754 343.40314Q503.39816 342.9969 504.27316 342.9969Q505.33566 342.9969 506.0388 343.6375Q506.75754 344.2625 506.8044 345.29376L505.77316 345.29376Q505.7263 344.66876 505.3044 344.27814Q504.88254 343.8875 504.27316 343.8875Q503.44504 343.8875 502.9919 344.48126Q502.5388 345.075 502.5388 346.2L502.5388 346.40314Q502.5388 347.4969 502.9919 348.09064Q503.44504 348.6844 504.27316 348.6844ZM510.3669 349.575Q509.07004 349.575 508.25754 348.73126Q507.46066 347.8719 507.46066 346.45L507.46066 346.2625Q507.46066 345.3094 507.82004 344.575Q508.1794 343.825 508.82004 343.41876Q509.4763 342.9969 510.2263 342.9969Q511.46066 342.9969 512.1482 343.8094Q512.8357 344.6219 512.8357 346.1375L512.8357 346.59064L508.5388 346.59064Q508.57004 347.52814 509.08566 348.10626Q509.6169 348.6844 510.4294 348.6844Q510.9919 348.6844 511.38254 348.45Q511.7888 348.21564 512.1013 347.825L512.75757 348.34064Q511.96066 349.575 510.3669 349.575ZM510.2263 343.8875Q509.57004 343.8875 509.1169 344.3719Q508.6794 344.84064 508.58566 345.7L511.75754 345.7L511.75754 345.6219Q511.71066 344.79376 511.3044 344.34064Q510.9138 343.8875 510.2263 343.8875ZM513.75757 348.8875Q513.75757 348.60626 513.9138 348.41876Q514.0857 348.23126 514.4138 348.23126Q514.75757 348.23126 514.92944 348.41876Q515.1013 348.60626 515.1013 348.8875Q515.1013 349.15314 514.92944 349.34064Q514.75757 349.5125 514.4138 349.5125Q514.0857 349.5125 513.9138 349.34064Q513.75757 349.15314 513.75757 348.8875ZM513.75757 343.8875Q513.75757 343.60626 513.9138 343.41876Q514.0857 343.23126 514.4138 343.23126Q514.75757 343.23126 514.92944 343.41876Q515.1013 343.60626 515.1013 343.8875Q515.1013 344.15314 514.92944 344.34064Q514.75757 344.5125 514.4138 344.5125Q514.0857 344.5125 513.9138 344.34064Q513.75757 344.15314 513.75757 343.8875ZM524.19507 346.59064L525.38257 346.59064L525.38257 347.46564L524.19507 347.46564L524.19507 349.45L523.11694 349.45L523.11694 347.46564L519.2263 347.46564L519.2263 346.825L523.0388 340.91876L524.19507 340.91876L524.19507 346.59064ZM520.4607 346.59064L523.11694 346.59064L523.11694 342.40314L522.9763 342.6375L520.4607 346.59064ZM526.69507 351.15314L526.0857 350.73126Q526.63257 349.96564 526.6638 349.1375L526.6638 348.16876L527.7263 348.16876L527.7263 349.0125Q527.7263 349.60626 527.42944 350.2Q527.13257 350.79376 526.69507 351.15314ZM533.19507 346.59064L534.38257 346.59064L534.38257 347.46564L533.19507 347.46564L533.19507 349.45L532.11694 349.45L532.11694 347.46564L528.2263 347.46564L528.2263 346.825L532.0388 340.91876L533.19507 340.91876L533.19507 346.59064ZM529.4607 346.59064L532.11694 346.59064L532.11694 342.40314L531.9763 342.6375L529.4607 346.59064ZM540.19507 346.59064L541.38257 346.59064L541.38257 347.46564L540.19507 347.46564L540.19507 349.45L539.11694 349.45L539.11694 347.46564L535.2263 347.46564L535.2263 346.825L539.0388 340.91876L540.19507 340.91876L540.19507 346.59064ZM536.4607 346.59064L539.11694 346.59064L539.11694 342.40314L538.9763 342.6375L536.4607 346.59064Z" fill-rule="nonzero"/><path fill="#bdbdbd" d="M158.57812 63.05L158.57812 56.628124L157.40625 56.628124L157.40625 55.659374L158.57812 55.659374L158.57812 54.89375Q158.57812 53.70625 159.20312 53.065624Q159.84375 52.409374 161.01562 52.409374Q161.45312 52.409374 161.875 52.51875L161.8125 53.55Q161.48438 53.4875 161.125 53.4875Q160.51562 53.4875 160.17188 53.846874Q159.84375 54.20625 159.84375 54.878124L159.84375 55.659374L161.42188 55.659374L161.42188 56.628124L159.84375 56.628124L159.84375 63.05L158.57812 63.05ZM162.625 59.284374Q162.625 58.190624 163.04688 57.33125Q163.48438 56.45625 164.23438 55.9875Q165.0 55.51875 165.98438 55.51875Q167.48438 55.51875 168.42188 56.565624Q169.35938 57.6125 169.35938 59.346874L169.35938 59.440624Q169.35938 60.51875 168.9375 61.378124Q168.53125 62.221874 167.75 62.70625Q166.98438 63.190624 166.0 63.190624Q164.48438 63.190624 163.54688 62.14375Q162.625 61.096874 162.625 59.378124L162.625 59.284374ZM163.89062 59.440624Q163.89062 60.659374 164.45312 61.409374Q165.03125 62.159374 166.0 62.159374Q166.95312 62.159374 167.51562 61.409374Q168.09375 60.64375 168.09375 59.284374Q168.09375 58.065624 167.51562 57.315624Q166.9375 56.55 165.98438 56.55Q165.04688 56.55 164.46875 57.3Q163.89062 58.05 163.89062 59.440624ZM172.15625 55.659374L172.1875 56.58125Q173.04688 55.51875 174.40625 55.51875Q176.75 55.51875 176.78125 58.159374L176.78125 63.05L175.51562 63.05L175.51562 58.159374Q175.5 57.3625 175.14062 56.9875Q174.78125 56.596874 174.03125 56.596874Q173.40625 56.596874 172.9375 56.925Q172.48438 57.253124 172.21875 57.784374L172.21875 63.05L170.95312 63.05L170.95312 55.659374L172.15625 55.659374ZM181.92188 62.159374Q182.59375 62.159374 183.09375 61.753124Q183.60938 61.33125 183.67188 60.721874L184.85938 60.721874Q184.82812 61.346874 184.42188 61.925Q184.01562 62.503124 183.34375 62.846874Q182.67188 63.190624 181.92188 63.190624Q180.40625 63.190624 179.51562 62.190624Q178.625 61.175 178.625 59.425L178.625 59.20625Q178.625 58.128124 179.01562 57.284374Q179.42188 56.440624 180.15625 55.9875Q180.90625 55.51875 181.92188 55.51875Q183.15625 55.51875 183.98438 56.26875Q184.8125 57.003124 184.85938 58.190624L183.67188 58.190624Q183.60938 57.471874 183.125 57.01875Q182.64062 56.55 181.92188 56.55Q180.95312 56.55 180.42188 57.253124Q179.89062 57.940624 179.89062 59.253124L179.89062 59.4875Q179.89062 60.76875 180.42188 61.471874Q180.95312 62.159374 181.92188 62.159374ZM187.67188 53.8625L187.67188 55.659374L189.04688 55.659374L189.04688 56.628124L187.67188 56.628124L187.67188 61.221874Q187.67188 61.659374 187.85938 61.89375Q188.04688 62.1125 188.48438 62.1125Q188.70312 62.1125 189.09375 62.01875L189.09375 63.05Q188.59375 63.190624 188.125 63.190624Q187.26562 63.190624 186.82812 62.675Q186.40625 62.159374 186.40625 61.221874L186.40625 56.628124L185.0625 56.628124L185.0625 55.659374L186.40625 55.659374L186.40625 53.8625L187.67188 53.8625ZM192.32812 63.05L191.0625 63.05L191.0625 55.659374L192.32812 55.659374L192.32812 63.05ZM190.96875 53.690624Q190.96875 53.378124 191.15625 53.175Q191.34375 52.95625 191.70312 52.95625Q192.07812 52.95625 192.26562 53.175Q192.46875 53.378124 192.46875 53.690624Q192.46875 54.003124 192.26562 54.20625Q192.07812 54.409374 191.70312 54.409374Q191.34375 54.409374 191.15625 54.20625Q190.96875 54.003124 190.96875 53.690624ZM193.625 59.284374Q193.625 58.190624 194.04688 57.33125Q194.48438 56.45625 195.23438 55.9875Q196.0 55.51875 196.98438 55.51875Q198.48438 55.51875 199.42188 56.565624Q200.35938 57.6125 200.35938 59.346874L200.35938 59.440624Q200.35938 60.51875 199.9375 61.378124Q199.53125 62.221874 198.75 62.70625Q197.98438 63.190624 197.0 63.190624Q195.48438 63.190624 194.54688 62.14375Q193.625 61.096874 193.625 59.378124L193.625 59.284374ZM194.89062 59.440624Q194.89062 60.659374 195.45312 61.409374Q196.03125 62.159374 197.0 62.159374Q197.95312 62.159374 198.51562 61.409374Q199.09375 60.64375 199.09375 59.284374Q199.09375 58.065624 198.51562 57.315624Q197.9375 56.55 196.98438 56.55Q196.04688 56.55 195.46875 57.3Q194.89062 58.05 194.89062 59.440624ZM203.15625 55.659374L203.1875 56.58125Q204.04688 55.51875 205.40625 55.51875Q207.75 55.51875 207.78125 58.159374L207.78125 63.05L206.51562 63.05L206.51562 58.159374Q206.5 57.3625 206.14062 56.9875Q205.78125 56.596874 205.03125 56.596874Q204.40625 56.596874 203.9375 56.925Q203.48438 57.253124 203.21875 57.784374L203.21875 63.05L201.95312 63.05L201.95312 55.659374L203.15625 55.659374ZM212.65625 59.284374Q212.65625 57.58125 213.45312 56.55Q214.26562 55.51875 215.5625 55.51875Q216.875 55.51875 217.625 56.409374L217.625 52.55L218.89062 52.55L218.89062 63.05L217.73438 63.05L217.67188 62.253124Q216.90625 63.190624 215.5625 63.190624Q214.26562 63.190624 213.45312 62.14375Q212.65625 61.08125 212.65625 59.378124L212.65625 59.284374ZM213.92188 59.440624Q213.92188 60.690624 214.4375 61.409374Q214.95312 62.1125 215.875 62.1125Q217.07812 62.1125 217.625 61.034374L217.625 57.628124Q217.0625 56.596874 215.89062 56.596874Q214.95312 56.596874 214.4375 57.315624Q213.92188 58.01875 213.92188 59.440624ZM224.03125 63.190624Q222.51562 63.190624 221.57812 62.20625Q220.64062 61.20625 220.64062 59.55L220.64062 59.33125Q220.64062 58.221874 221.0625 57.3625Q221.48438 56.4875 222.23438 56.003124Q222.98438 55.51875 223.875 55.51875Q225.3125 55.51875 226.10938 56.471874Q226.90625 57.409374 226.90625 59.190624L226.90625 59.70625L221.90625 59.70625Q221.92188 60.8 222.53125 61.4875Q223.15625 62.159374 224.09375 62.159374Q224.76562 62.159374 225.21875 61.89375Q225.6875 61.6125 226.04688 61.159374L226.8125 61.753124Q225.89062 63.190624 224.03125 63.190624ZM223.875 56.55Q223.10938 56.55 222.57812 57.1125Q222.0625 57.675 221.9375 58.675L225.64062 58.675L225.64062 58.58125Q225.59375 57.6125 225.125 57.08125Q224.65625 56.55 223.875 56.55ZM232.32812 63.05L231.0625 63.05L231.0625 52.55L232.32812 52.55L232.32812 63.05ZM238.53125 63.05Q238.42188 62.83125 238.34375 62.26875Q237.46875 63.190624 236.23438 63.190624Q235.14062 63.190624 234.4375 62.58125Q233.75 61.95625 233.75 61.003124Q233.75 59.846874 234.625 59.20625Q235.5 58.565624 237.09375 58.565624L238.32812 58.565624L238.32812 57.9875Q238.32812 57.315624 237.92188 56.925Q237.53125 56.534374 236.76562 56.534374Q236.07812 56.534374 235.625 56.878124Q235.17188 57.221874 235.17188 57.70625L233.89062 57.70625Q233.89062 57.14375 234.28125 56.628124Q234.6875 56.1125 235.35938 55.815624Q236.03125 55.51875 236.82812 55.51875Q238.10938 55.51875 238.82812 56.159374Q239.5625 56.8 239.59375 57.909374L239.59375 61.315624Q239.59375 62.33125 239.84375 62.940624L239.84375 63.05L238.53125 63.05ZM236.42188 62.08125Q237.01562 62.08125 237.54688 61.784374Q238.09375 61.471874 238.32812 60.971874L238.32812 59.45625L237.32812 59.45625Q235.01562 59.45625 235.01562 60.815624Q235.01562 61.409374 235.40625 61.753124Q235.79688 62.08125 236.42188 62.08125ZM247.39062 61.33125L249.23438 55.659374L250.51562 55.659374L247.875 63.05L246.90625 63.05L244.21875 55.659374L245.51562 55.659374L247.39062 61.33125ZM256.53125 63.05Q256.42188 62.83125 256.34375 62.26875Q255.46875 63.190624 254.23438 63.190624Q253.14062 63.190624 252.4375 62.58125Q251.75 61.95625 251.75 61.003124Q251.75 59.846874 252.625 59.20625Q253.5 58.565624 255.09375 58.565624L256.32812 58.565624L256.32812 57.9875Q256.32812 57.315624 255.92188 56.925Q255.53125 56.534374 254.76562 56.534374Q254.07812 56.534374 253.625 56.878124Q253.17188 57.221874 253.17188 57.70625L251.89062 57.70625Q251.89062 57.14375 252.28125 56.628124Q252.6875 56.1125 253.35938 55.815624Q254.03125 55.51875 254.82812 55.51875Q256.10938 55.51875 256.82812 56.159374Q257.5625 56.8 257.59375 57.909374L257.59375 61.315624Q257.59375 62.33125 257.84375 62.940624L257.84375 63.05L256.53125 63.05ZM254.42188 62.08125Q255.01562 62.08125 255.54688 61.784374Q256.09375 61.471874 256.32812 60.971874L256.32812 59.45625L255.32812 59.45625Q253.01562 59.45625 253.01562 60.815624Q253.01562 61.409374 253.40625 61.753124Q253.79688 62.08125 254.42188 62.08125ZM263.53125 56.784374Q263.25 56.7375 262.90625 56.7375Q261.67188 56.7375 261.21875 57.8L261.21875 63.05L259.95312 63.05L259.95312 55.659374L261.1875 55.659374L261.20312 56.503124Q261.82812 55.51875 262.96875 55.51875Q263.34375 55.51875 263.53125 55.6125L263.53125 56.784374ZM266.32812 63.05L265.0625 63.05L265.0625 55.659374L266.32812 55.659374L266.32812 63.05ZM264.96875 53.690624Q264.96875 53.378124 265.15625 53.175Q265.34375 52.95625 265.70312 52.95625Q266.07812 52.95625 266.26562 53.175Q266.46875 53.378124 266.46875 53.690624Q266.46875 54.003124 266.26562 54.20625Q266.07812 54.409374 265.70312 54.409374Q265.34375 54.409374 265.15625 54.20625Q264.96875 54.003124 264.96875 53.690624ZM272.53125 63.05Q272.42188 62.83125 272.34375 62.26875Q271.46875 63.190624 270.23438 63.190624Q269.14062 63.190624 268.4375 62.58125Q267.75 61.95625 267.75 61.003124Q267.75 59.846874 268.625 59.20625Q269.5 58.565624 271.09375 58.565624L272.32812 58.565624L272.32812 57.9875Q272.32812 57.315624 271.92188 56.925Q271.53125 56.534374 270.76562 56.534374Q270.07812 56.534374 269.625 56.878124Q269.17188 57.221874 269.17188 57.70625L267.89062 57.70625Q267.89062 57.14375 268.28125 56.628124Q268.6875 56.1125 269.35938 55.815624Q270.03125 55.51875 270.82812 55.51875Q272.10938 55.51875 272.82812 56.159374Q273.5625 56.8 273.59375 57.909374L273.59375 61.315624Q273.59375 62.33125 273.84375 62.940624L273.84375 63.05L272.53125 63.05ZM270.42188 62.08125Q271.01562 62.08125 271.54688 61.784374Q272.09375 61.471874 272.32812 60.971874L272.32812 59.45625L271.32812 59.45625Q269.01562 59.45625 269.01562 60.815624Q269.01562 61.409374 269.40625 61.753124Q269.79688 62.08125 270.42188 62.08125ZM277.15625 55.659374L277.1875 56.58125Q278.04688 55.51875 279.40625 55.51875Q281.75 55.51875 281.78125 58.159374L281.78125 63.05L280.51562 63.05L280.51562 58.159374Q280.5 57.3625 280.14062 56.9875Q279.78125 56.596874 279.03125 56.596874Q278.40625 56.596874 277.9375 56.925Q277.48438 57.253124 277.21875 57.784374L277.21875 63.05L275.95312 63.05L275.95312 55.659374L277.15625 55.659374ZM286.92188 62.159374Q287.59375 62.159374 288.09375 61.753124Q288.60938 61.33125 288.67188 60.721874L289.85938 60.721874Q289.82812 61.346874 289.42188 61.925Q289.01562 62.503124 288.34375 62.846874Q287.67188 63.190624 286.92188 63.190624Q285.40625 63.190624 284.51562 62.190624Q283.625 61.175 283.625 59.425L283.625 59.20625Q283.625 58.128124 284.01562 57.284374Q284.42188 56.440624 285.15625 55.9875Q285.90625 55.51875 286.92188 55.51875Q288.15625 55.51875 288.98438 56.26875Q289.8125 57.003124 289.85938 58.190624L288.67188 58.190624Q288.60938 57.471874 288.125 57.01875Q287.64062 56.55 286.92188 56.55Q285.95312 56.55 285.42188 57.253124Q284.89062 57.940624 284.89062 59.253124L284.89062 59.4875Q284.89062 60.76875 285.42188 61.471874Q285.95312 62.159374 286.92188 62.159374ZM294.03125 63.190624Q292.51562 63.190624 291.57812 62.20625Q290.64062 61.20625 290.64062 59.55L290.64062 59.33125Q290.64062 58.221874 291.0625 57.3625Q291.48438 56.4875 292.23438 56.003124Q292.98438 55.51875 293.875 55.51875Q295.3125 55.51875 296.10938 56.471874Q296.90625 57.409374 296.90625 59.190624L296.90625 59.70625L291.90625 59.70625Q291.92188 60.8 292.53125 61.4875Q293.15625 62.159374 294.09375 62.159374Q294.76562 62.159374 295.21875 61.89375Q295.6875 61.6125 296.04688 61.159374L296.8125 61.753124Q295.89062 63.190624 294.03125 63.190624ZM293.875 56.55Q293.10938 56.55 292.57812 57.1125Q292.0625 57.675 291.9375 58.675L295.64062 58.675L295.64062 58.58125Q295.59375 57.6125 295.125 57.08125Q294.65625 56.55 293.875 56.55ZM304.03125 63.190624Q302.51562 63.190624 301.57812 62.20625Q300.64062 61.20625 300.64062 59.55L300.64062 59.33125Q300.64062 58.221874 301.0625 57.3625Q301.48438 56.4875 302.23438 56.003124Q302.98438 55.51875 303.875 55.51875Q305.3125 55.51875 306.10938 56.471874Q306.90625 57.409374 306.90625 59.190624L306.90625 59.70625L301.90625 59.70625Q301.92188 60.8 302.53125 61.4875Q303.15625 62.159374 304.09375 62.159374Q304.76562 62.159374 305.21875 61.89375Q305.6875 61.6125 306.04688 61.159374L306.8125 61.753124Q305.89062 63.190624 304.03125 63.190624ZM303.875 56.55Q303.10938 56.55 302.57812 57.1125Q302.0625 57.675 301.9375 58.675L305.64062 58.675L305.64062 58.58125Q305.59375 57.6125 305.125 57.08125Q304.65625 56.55 303.875 56.55ZM309.67188 53.8625L309.67188 55.659374L311.04688 55.659374L311.04688 56.628124L309.67188 56.628124L309.67188 61.221874Q309.67188 61.659374 309.85938 61.89375Q310.04688 62.1125 310.48438 62.1125Q310.70312 62.1125 311.09375 62.01875L311.09375 63.05Q310.59375 63.190624 310.125 63.190624Q309.26562 63.190624 308.82812 62.675Q308.40625 62.159374 308.40625 61.221874L308.40625 56.628124L307.0625 56.628124L307.0625 55.659374L308.40625 55.659374L308.40625 53.8625L309.67188 53.8625ZM315.65625 59.284374Q315.65625 57.58125 316.45312 56.55Q317.26562 55.51875 318.5625 55.51875Q319.875 55.51875 320.625 56.409374L320.625 52.55L321.89062 52.55L321.89062 63.05L320.73438 63.05L320.67188 62.253124Q319.90625 63.190624 318.5625 63.190624Q317.26562 63.190624 316.45312 62.14375Q315.65625 61.08125 315.65625 59.378124L315.65625 59.284374ZM316.92188 59.440624Q316.92188 60.690624 317.4375 61.409374Q317.95312 62.1125 318.875 62.1125Q320.07812 62.1125 320.625 61.034374L320.625 57.628124Q320.0625 56.596874 318.89062 56.596874Q317.95312 56.596874 317.4375 57.315624Q316.92188 58.01875 316.92188 59.440624ZM327.03125 63.190624Q325.51562 63.190624 324.57812 62.20625Q323.64062 61.20625 323.64062 59.55L323.64062 59.33125Q323.64062 58.221874 324.0625 57.3625Q324.48438 56.4875 325.23438 56.003124Q325.98438 55.51875 326.875 55.51875Q328.3125 55.51875 329.10938 56.471874Q329.90625 57.409374 329.90625 59.190624L329.90625 59.70625L324.90625 59.70625Q324.92188 60.8 325.53125 61.4875Q326.15625 62.159374 327.09375 62.159374Q327.76562 62.159374 328.21875 61.89375Q328.6875 61.6125 329.04688 61.159374L329.8125 61.753124Q328.89062 63.190624 327.03125 63.190624ZM326.875 56.55Q326.10938 56.55 325.57812 57.1125Q325.0625 57.675 324.9375 58.675L328.64062 58.675L328.64062 58.58125Q328.59375 57.6125 328.125 57.08125Q327.65625 56.55 326.875 56.55ZM335.32812 63.05L334.0625 63.05L334.0625 52.55L335.32812 52.55L335.32812 63.05ZM341.53125 63.05Q341.42188 62.83125 341.34375 62.26875Q340.46875 63.190624 339.23438 63.190624Q338.14062 63.190624 337.4375 62.58125Q336.75 61.95625 336.75 61.003124Q336.75 59.846874 337.625 59.20625Q338.5 58.565624 340.09375 58.565624L341.32812 58.565624L341.32812 57.9875Q341.32812 57.315624 340.92188 56.925Q340.53125 56.534374 339.76562 56.534374Q339.07812 56.534374 338.625 56.878124Q338.17188 57.221874 338.17188 57.70625L336.89062 57.70625Q336.89062 57.14375 337.28125 56.628124Q337.6875 56.1125 338.35938 55.815624Q339.03125 55.51875 339.82812 55.51875Q341.10938 55.51875 341.82812 56.159374Q342.5625 56.8 342.59375 57.909374L342.59375 61.315624Q342.59375 62.33125 342.84375 62.940624L342.84375 63.05L341.53125 63.05ZM339.42188 62.08125Q340.01562 62.08125 340.54688 61.784374Q341.09375 61.471874 341.32812 60.971874L341.32812 59.45625L340.32812 59.45625Q338.01562 59.45625 338.01562 60.815624Q338.01562 61.409374 338.40625 61.753124Q338.79688 62.08125 339.42188 62.08125ZM349.67188 53.8625L349.67188 55.659374L351.04688 55.659374L351.04688 56.628124L349.67188 56.628124L349.67188 61.221874Q349.67188 61.659374 349.85938 61.89375Q350.04688 62.1125 350.48438 62.1125Q350.70312 62.1125 351.09375 62.01875L351.09375 63.05Q350.59375 63.190624 350.125 63.190624Q349.26562 63.190624 348.82812 62.675Q348.40625 62.159374 348.40625 61.221874L348.40625 56.628124L347.0625 56.628124L347.0625 55.659374L348.40625 55.659374L348.40625 53.8625L349.67188 53.8625ZM357.53125 63.05Q357.42188 62.83125 357.34375 62.26875Q356.46875 63.190624 355.23438 63.190624Q354.14062 63.190624 353.4375 62.58125Q352.75 61.95625 352.75 61.003124Q352.75 59.846874 353.625 59.20625Q354.5 58.565624 356.09375 58.565624L357.32812 58.565624L357.32812 57.9875Q357.32812 57.315624 356.92188 56.925Q356.53125 56.534374 355.76562 56.534374Q355.07812 56.534374 354.625 56.878124Q354.17188 57.221874 354.17188 57.70625L352.89062 57.70625Q352.89062 57.14375 353.28125 56.628124Q353.6875 56.1125 354.35938 55.815624Q355.03125 55.51875 355.82812 55.51875Q357.10938 55.51875 357.82812 56.159374Q358.5625 56.8 358.59375 57.909374L358.59375 61.315624Q358.59375 62.33125 358.84375 62.940624L358.84375 63.05L357.53125 63.05ZM355.42188 62.08125Q356.01562 62.08125 356.54688 61.784374Q357.09375 61.471874 357.32812 60.971874L357.32812 59.45625L356.32812 59.45625Q354.01562 59.45625 354.01562 60.815624Q354.01562 61.409374 354.40625 61.753124Q354.79688 62.08125 355.42188 62.08125ZM362.32812 63.05L361.0625 63.05L361.0625 55.659374L362.32812 55.659374L362.32812 63.05ZM360.96875 53.690624Q360.96875 53.378124 361.15625 53.175Q361.34375 52.95625 361.70312 52.95625Q362.07812 52.95625 362.26562 53.175Q362.46875 53.378124 362.46875 53.690624Q362.46875 54.003124 362.26562 54.20625Q362.07812 54.409374 361.70312 54.409374Q361.34375 54.409374 361.15625 54.20625Q360.96875 54.003124 360.96875 53.690624ZM365.32812 63.05L364.0625 63.05L364.0625 52.55L365.32812 52.55L365.32812 63.05ZM368.32812 63.05L367.0625 63.05L367.0625 52.55L368.32812 52.55L368.32812 63.05ZM373.03125 63.190624Q371.51562 63.190624 370.57812 62.20625Q369.64062 61.20625 369.64062 59.55L369.64062 59.33125Q369.64062 58.221874 370.0625 57.3625Q370.48438 56.4875 371.23438 56.003124Q371.98438 55.51875 372.875 55.51875Q374.3125 55.51875 375.10938 56.471874Q375.90625 57.409374 375.90625 59.190624L375.90625 59.70625L370.90625 59.70625Q370.92188 60.8 371.53125 61.4875Q372.15625 62.159374 373.09375 62.159374Q373.76562 62.159374 374.21875 61.89375Q374.6875 61.6125 375.04688 61.159374L375.8125 61.753124Q374.89062 63.190624 373.03125 63.190624ZM372.875 56.55Q372.10938 56.55 371.57812 57.1125Q371.0625 57.675 370.9375 58.675L374.64062 58.675L374.64062 58.58125Q374.59375 57.6125 374.125 57.08125Q373.65625 56.55 372.875 56.55ZM379.65625 59.284374Q379.65625 57.58125 380.45312 56.55Q381.26562 55.51875 382.5625 55.51875Q383.875 55.51875 384.625 56.409374L384.625 52.55L385.89062 52.55L385.89062 63.05L384.73438 63.05L384.67188 62.253124Q383.90625 63.190624 382.5625 63.190624Q381.26562 63.190624 380.45312 62.14375Q379.65625 61.08125 379.65625 59.378124L379.65625 59.284374ZM380.92188 59.440624Q380.92188 60.690624 381.4375 61.409374Q381.95312 62.1125 382.875 62.1125Q384.07812 62.1125 384.625 61.034374L384.625 57.628124Q384.0625 56.596874 382.89062 56.596874Q381.95312 56.596874 381.4375 57.315624Q380.92188 58.01875 380.92188 59.440624ZM391.03125 63.190624Q389.51562 63.190624 388.57812 62.20625Q387.64062 61.20625 387.64062 59.55L387.64062 59.33125Q387.64062 58.221874 388.0625 57.3625Q388.48438 56.4875 389.23438 56.003124Q389.98438 55.51875 390.875 55.51875Q392.3125 55.51875 393.10938 56.471874Q393.90625 57.409374 393.90625 59.190624L393.90625 59.70625L388.90625 59.70625Q388.92188 60.8 389.53125 61.4875Q390.15625 62.159374 391.09375 62.159374Q391.76562 62.159374 392.21875 61.89375Q392.6875 61.6125 393.04688 61.159374L393.8125 61.753124Q392.89062 63.190624 391.03125 63.190624ZM390.875 56.55Q390.10938 56.55 389.57812 57.1125Q389.0625 57.675 388.9375 58.675L392.64062 58.675L392.64062 58.58125Q392.59375 57.6125 392.125 57.08125Q391.65625 56.55 390.875 56.55ZM399.32812 63.05L398.0625 63.05L398.0625 52.55L399.32812 52.55L399.32812 63.05ZM405.53125 63.05Q405.42188 62.83125 405.34375 62.26875Q404.46875 63.190624 403.23438 63.190624Q402.14062 63.190624 401.4375 62.58125Q400.75 61.95625 400.75 61.003124Q400.75 59.846874 401.625 59.20625Q402.5 58.565624 404.09375 58.565624L405.32812 58.565624L405.32812 57.9875Q405.32812 57.315624 404.92188 56.925Q404.53125 56.534374 403.76562 56.534374Q403.07812 56.534374 402.625 56.878124Q402.17188 57.221874 402.17188 57.70625L400.89062 57.70625Q400.89062 57.14375 401.28125 56.628124Q401.6875 56.1125 402.35938 55.815624Q403.03125 55.51875 403.82812 55.51875Q405.10938 55.51875 405.82812 56.159374Q406.5625 56.8 406.59375 57.909374L406.59375 61.315624Q406.59375 62.33125 406.84375 62.940624L406.84375 63.05L405.53125 63.05ZM403.42188 62.08125Q404.01562 62.08125 404.54688 61.784374Q405.09375 61.471874 405.32812 60.971874L405.32812 59.45625L404.32812 59.45625Q402.01562 59.45625 402.01562 60.815624Q402.01562 61.409374 402.40625 61.753124Q402.79688 62.08125 403.42188 62.08125ZM414.92188 62.159374Q415.59375 62.159374 416.09375 61.753124Q416.60938 61.33125 416.67188 60.721874L417.85938 60.721874Q417.82812 61.346874 417.42188 61.925Q417.01562 62.503124 416.34375 62.846874Q415.67188 63.190624 414.92188 63.190624Q413.40625 63.190624 412.51562 62.190624Q411.625 61.175 411.625 59.425L411.625 59.20625Q411.625 58.128124 412.01562 57.284374Q412.42188 56.440624 413.15625 55.9875Q413.90625 55.51875 414.92188 55.51875Q416.15625 55.51875 416.98438 56.26875Q417.8125 57.003124 417.85938 58.190624L416.67188 58.190624Q416.60938 57.471874 416.125 57.01875Q415.64062 56.55 414.92188 56.55Q413.95312 56.55 413.42188 57.253124Q412.89062 57.940624 412.89062 59.253124L412.89062 59.4875Q412.89062 60.76875 413.42188 61.471874Q413.95312 62.159374 414.92188 62.159374ZM423.53125 63.05Q423.42188 62.83125 423.34375 62.26875Q422.46875 63.190624 421.23438 63.190624Q420.14062 63.190624 419.4375 62.58125Q418.75 61.95625 418.75 61.003124Q418.75 59.846874 419.625 59.20625Q420.5 58.565624 422.09375 58.565624L423.32812 58.565624L423.32812 57.9875Q423.32812 57.315624 422.92188 56.925Q422.53125 56.534374 421.76562 56.534374Q421.07812 56.534374 420.625 56.878124Q420.17188 57.221874 420.17188 57.70625L418.89062 57.70625Q418.89062 57.14375 419.28125 56.628124Q419.6875 56.1125 420.35938 55.815624Q421.03125 55.51875 421.82812 55.51875Q423.10938 55.51875 423.82812 56.159374Q424.5625 56.8 424.59375 57.909374L424.59375 61.315624Q424.59375 62.33125 424.84375 62.940624L424.84375 63.05L423.53125 63.05ZM421.42188 62.08125Q422.01562 62.08125 422.54688 61.784374Q423.09375 61.471874 423.32812 60.971874L423.32812 59.45625L422.32812 59.45625Q420.01562 59.45625 420.01562 60.815624Q420.01562 61.409374 420.40625 61.753124Q420.79688 62.08125 421.42188 62.08125ZM430.53125 56.784374Q430.25 56.7375 429.90625 56.7375Q428.67188 56.7375 428.21875 57.8L428.21875 63.05L426.95312 63.05L426.95312 55.659374L428.1875 55.659374L428.20312 56.503124Q428.82812 55.51875 429.96875 55.51875Q430.34375 55.51875 430.53125 55.6125L430.53125 56.784374ZM433.67188 53.8625L433.67188 55.659374L435.04688 55.659374L435.04688 56.628124L433.67188 56.628124L433.67188 61.221874Q433.67188 61.659374 433.85938 61.89375Q434.04688 62.1125 434.48438 62.1125Q434.70312 62.1125 435.09375 62.01875L435.09375 63.05Q434.59375 63.190624 434.125 63.190624Q433.26562 63.190624 432.82812 62.675Q432.40625 62.159374 432.40625 61.221874L432.40625 56.628124L431.0625 56.628124L431.0625 55.659374L432.40625 55.659374L432.40625 53.8625L433.67188 53.8625ZM440.03125 63.190624Q438.51562 63.190624 437.57812 62.20625Q436.64062 61.20625 436.64062 59.55L436.64062 59.33125Q436.64062 58.221874 437.0625 57.3625Q437.48438 56.4875 438.23438 56.003124Q438.98438 55.51875 439.875 55.51875Q441.3125 55.51875 442.10938 56.471874Q442.90625 57.409374 442.90625 59.190624L442.90625 59.70625L437.90625 59.70625Q437.92188 60.8 438.53125 61.4875Q439.15625 62.159374 440.09375 62.159374Q440.76562 62.159374 441.21875 61.89375Q441.6875 61.6125 442.04688 61.159374L442.8125 61.753124Q441.89062 63.190624 440.03125 63.190624ZM439.875 56.55Q439.10938 56.55 438.57812 57.1125Q438.0625 57.675 437.9375 58.675L441.64062 58.675L441.64062 58.58125Q441.59375 57.6125 441.125 57.08125Q440.65625 56.55 439.875 56.55Z" fill-rule="nonzero"/><path fill="#757575" d="M290.46875 24.878124L285.90625 24.878124L285.90625 37.55L284.04688 37.55L284.04688 24.878124L279.48438 24.878124L279.48438 23.33125L290.46875 23.33125L290.46875 24.878124ZM300.5 33.83125L294.54688 33.83125L293.20312 37.55L291.28125 37.55L296.70312 23.33125L298.34375 23.33125L303.78125 37.55L301.85938 37.55L300.5 33.83125ZM295.10938 32.3L299.95312 32.3L297.53125 25.64375L295.10938 32.3ZM308.07812 23.33125L312.71875 34.925L317.375 23.33125L319.79688 23.33125L319.79688 37.55L317.92188 37.55L317.92188 32.01875L318.10938 26.034374L313.4375 37.55L312.0 37.55L307.34375 26.065624L307.53125 32.01875L307.53125 37.55L305.65625 37.55L305.65625 23.33125L308.07812 23.33125Z" fill-rule="nonzero"/></svg>